<?xml version="1.0" standalone="no"?>
<svg viewBox="0 0 200 200" xmlns="http://www.w3.org/2000/svg">
  <path fill="#34B7F1" d="M40.9,-68.2C54,-63.4,66.3,-54.3,75.3,-42.3C84.4,-30.2,90.2,-15.1,90.1,-0.1C89.9,14.9,83.7,29.9,74.6,41.8C65.5,53.7,53.4,62.7,40.5,71.7C27.6,80.8,13.8,89.9,-0.1,90C-14,90.2,-28,81.4,-41.1,72.5C-54.2,63.6,-66.5,54.5,-71.7,42.4C-77,30.3,-75.3,15.1,-73.8,0.8C-72.4,-13.5,-71.2,-27,-66.8,-40.5C-62.3,-54.1,-54.7,-67.7,-43,-73.3C-31.3,-78.9,-15.7,-76.5,-0.9,-75C13.9,-73.6,27.9,-73,40.9,-68.2Z" transform="translate(100 100)" />
</svg>
