<?xml version="1.0" standalone="no"?>
<svg viewBox="0 0 200 200" xmlns="http://www.w3.org/2000/svg">
  <path fill="#128C7E" d="M46.3,-80.2C59.8,-72.5,70.1,-59.5,78.4,-45.2C86.7,-31,93,-15.5,92.6,-0.2C92.3,15,85.2,30.1,76.9,44.4C68.7,58.7,59.1,72.3,46.1,80.7C33.1,89.2,16.5,92.5,0.2,92.1C-16.1,91.7,-32.1,87.5,-45.7,79.4C-59.3,71.3,-70.4,59.2,-78.8,45.3C-87.2,31.4,-92.9,15.7,-93.5,-0.4C-94.2,-16.5,-89.9,-33,-81.3,-46.4C-72.6,-59.8,-59.5,-70.1,-45.2,-77.2C-31,-84.4,-15.5,-88.3,0.5,-89.1C16.5,-90,32.9,-87.8,46.3,-80.2Z" transform="translate(100 100)" />
</svg>
