<?xml version="1.0" standalone="no"?>
<svg viewBox="0 0 200 200" xmlns="http://www.w3.org/2000/svg">
  <path fill="#FA4D56" d="M36.5,-56.8C50.1,-48.1,65.9,-42.7,73.5,-31.9C81.1,-21.1,80.5,-4.8,77.3,10.5C74.1,25.7,68.4,40,57.7,47C47,54,31.4,53.8,17.4,56.7C3.5,59.6,-8.8,65.6,-22.5,66.3C-36.1,66.9,-51.2,62.2,-61.5,52.2C-71.7,42.3,-77.2,27.1,-74.1,13.9C-71,0.6,-59.5,-10.6,-53.9,-25.5C-48.4,-40.3,-49,-58.7,-41,-70C-33.1,-81.3,-16.5,-85.5,-2.5,-81.6C11.4,-77.6,22.9,-65.5,36.5,-56.8Z" transform="translate(100 100)" />
</svg>
